<?xml version="1.0" encoding="utf-8"?>
<!-- Generator: Adobe Illustrator 17.0.0, SVG Export Plug-In . SVG Version: 6.00 Build 0)  -->
<!DOCTYPE svg PUBLIC "-//W3C//DTD SVG 1.1//EN" "http://www.w3.org/Graphics/SVG/1.1/DTD/svg11.dtd">
<svg version="1.1" id="图层_1" xmlns="http://www.w3.org/2000/svg" xmlns:xlink="http://www.w3.org/1999/xlink" x="0px" y="0px"
	 width="56.69px" height="56.69px" viewBox="0 0 56.69 56.69" enable-background="new 0 0 56.69 56.69" xml:space="preserve">
<g>
	<g id="XMLID_10_">
		<g>
			<path fill="#EA6390" d="M27.693,52.773c-7.83,0.194-21.78-12.522-21.323-21.562c0.401-7.943,3.659-6.841,9.119-15.686
				c4.863-7.877-1.425-13.792-1.425-13.792c13.563,6.424,16.233,17.811,9.352,26.339C11.818,42.441,27.693,52.773,27.693,52.773z"/>
		</g>
	</g>
	<g id="XMLID_9_">
		<g>
			<path fill="#EA6390" d="M29.298,53.214c7.828,0.194,21.598-12.523,21.143-21.569c-0.406-7.94-3.661-6.836-9.12-15.681
				C36.5,8.16,40.129,2.744,40.197,2.642c-13.242,7.752-14.653,15.118-6.805,25.866C43.874,42.878,29.298,53.214,29.298,53.214z"/>
		</g>
	</g>
</g>
</svg>
