<?xml version="1.0" encoding="utf-8"?>
<!-- Generator: Adobe Illustrator 17.0.0, SVG Export Plug-In . SVG Version: 6.00 Build 0)  -->
<!DOCTYPE svg PUBLIC "-//W3C//DTD SVG 1.1//EN" "http://www.w3.org/Graphics/SVG/1.1/DTD/svg11.dtd">
<svg version="1.1" id="图层_1" xmlns="http://www.w3.org/2000/svg" xmlns:xlink="http://www.w3.org/1999/xlink" x="0px" y="0px"
	 width="841.89px" height="595.28px" viewBox="0 0 841.89 595.28" enable-background="new 0 0 841.89 595.28" xml:space="preserve">
<g>
	<g>
		<g>
			<g>
				<g>
					<defs>
						<rect id="SVGID_1_" x="-404.555" y="-210.677" width="1834" height="1296.777"/>
					</defs>
					<clipPath id="SVGID_2_">
						<use xlink:href="#SVGID_1_"  overflow="visible"/>
					</clipPath>
					<path clip-path="url(#SVGID_2_)" fill="#EA6390" d="M605.159,422.76c0,79.336-75.36,143.679-168.303,143.679
						c-20.274,0-39.781-3.076-57.817-8.699c-15.13-9.178-29.12-15.489-42.103-19.388C295.473,512.15,268.58,470.14,268.58,422.76
						c0-116.482,104.788-283.697,153.042-398.003c81.38,136.53-287.571,422.655-69.274,513.052l-7.996-7.398
						C215.765,411.594,503.667,154.127,435.983,36.917c-3.209-5.568-7.254-11.525-12.106-17.569c0.608-1.46,1.192-2.866,1.763-4.299
						c8.912,19.388,22.16,40.273,33.1,64.473C486.622,141.197,605.159,350.156,605.159,422.76"/>
				</g>
			</g>
		</g>
	</g>
	<g display="none">
		<g display="inline">
			<g>
				<g>
					<defs>
						<rect id="SVGID_3_" x="-404.555" y="-210.677" width="1834" height="1296.777"/>
					</defs>
					<clipPath id="SVGID_4_">
						<use xlink:href="#SVGID_3_"  overflow="visible"/>
					</clipPath>
					<path clip-path="url(#SVGID_4_)" d="M72.799,872.76L36.194,761.902c-8.506,0-17.222-0.904-26.145-2.719l-19.661,69.025
						c-2.651,9.065-3.973,16.664-3.973,22.799c0,4.74,1.6,8.438,4.808,11.087c2.513,2.091,9.273,3.553,20.292,4.391l-1.466,6.274
						h-88.478l1.882-6.274c8.368-0.278,14.014-1.115,16.942-2.513c4.603-1.951,7.949-4.53,10.04-7.737
						c3.624-5.298,7.389-14.643,11.295-28.027L1.683,690.366c2.647-9.205,3.973-16.317,3.973-21.335
						c0-5.158-2.126-9.55-6.379-13.177c-4.257-3.624-10.288-5.365-18.094-5.23l2.091-6.274h74.463
						c24.819,0,42.74,4.743,53.757,14.223c11.013,9.485,16.523,21.895,16.523,37.232c0,14.643-5.647,28.066-16.942,40.264
						c-11.297,12.206-26.775,19.908-46.435,23.116l22.38,66.935c5.298,16.453,10.668,27.124,16.105,32.003
						c5.44,4.88,14.153,7.671,26.145,8.366l-1.882,6.274L72.799,872.76L72.799,872.76z M12.768,749.77
						c7.251,0.979,13.666,1.464,19.244,1.464c19.381,0,34.684-5.365,45.913-16.105c11.223-10.737,16.837-24.054,16.837-39.953
						c0-12.551-3.523-22.135-10.563-28.759c-7.04-6.622-17.604-9.936-31.688-9.936c-3.488,0-7.737,0.49-12.761,1.466L12.768,749.77z
						"/>
				</g>
			</g>
		</g>
	</g>
	<g display="none">
		<g display="inline">
			<g>
				<g>
					<defs>
						<rect id="SVGID_5_" x="-404.555" y="-210.677" width="1834" height="1296.777"/>
					</defs>
					<clipPath id="SVGID_6_">
						<use xlink:href="#SVGID_5_"  overflow="visible"/>
					</clipPath>
					<path clip-path="url(#SVGID_6_)" d="M241.39,633.265l-47.272,163.57c20.36-30.818,36.256-51.279,47.69-61.391
						c11.432-10.11,22.38-15.167,32.84-15.167c5.437,0,9.936,1.882,13.491,5.649c3.558,3.765,5.333,8.716,5.333,14.85
						c0,7.394-1.534,16.387-4.601,26.984l-20.5,70.487c-2.649,8.508-3.973,13.249-3.973,14.223c0,1.537,0.485,2.793,1.464,3.766
						c0.974,0.975,2.094,1.462,3.346,1.462c1.394,0,3.068-0.695,5.022-2.089c6.412-5.022,12.759-11.85,19.033-20.5l5.23,3.138
						c-3.906,5.997-9.241,12.551-16,19.663c-6.766,7.112-12.587,12.025-17.467,14.746c-4.883,2.719-9.205,4.078-12.967,4.078
						c-4.183,0-7.601-1.327-10.25-3.973c-2.651-2.647-3.976-5.993-3.976-10.038c0-5.023,1.952-14.225,5.859-27.612l19.453-67.351
						c2.367-8.504,3.554-15.13,3.554-19.873c0-2.229-0.699-4.041-2.091-5.437c-1.395-1.392-3.209-2.094-5.437-2.094
						c-3.211,0-6.904,1.257-11.089,3.766c-7.671,4.742-16.453,13.528-26.355,26.357c-2.791,3.486-11.785,17.502-26.982,42.042
						c-4.743,7.813-8.646,16.389-11.714,25.728l-10.668,34.513h-25.31l55.431-192.642l5.855-20.917c0-2.929-1.222-5.507-3.659-7.741
						c-2.443-2.229-5.405-3.346-8.889-3.346c-1.954,0-5.02,0.35-9.201,1.045l-3.558,0.419v-6.484L241.39,633.265z"/>
				</g>
			</g>
		</g>
	</g>
	<g display="none">
		<g display="inline">
			<g>
				<g>
					<defs>
						<rect id="SVGID_7_" x="-404.555" y="-210.677" width="1834" height="1296.777"/>
					</defs>
					<clipPath id="SVGID_8_">
						<use xlink:href="#SVGID_7_"  overflow="visible"/>
					</clipPath>
					<path clip-path="url(#SVGID_8_)" d="M471.887,772.987c0,16.874-4.461,33.572-13.386,50.096
						c-8.923,16.525-21.333,29.598-37.23,39.221c-15.897,9.623-31.377,14.433-46.433,14.433c-15.345,0-27.892-4.915-37.652-14.746
						c-9.763-9.83-14.643-22.485-14.643-37.964c0-16.594,4.74-33.187,14.225-49.784c9.481-16.59,22.172-29.734,38.07-39.426
						c15.897-9.691,31.233-14.54,46.011-14.54c14.92,0,27.162,4.915,36.708,14.746C467.114,744.855,471.887,757.511,471.887,772.987
						 M444.069,761.486c0-10.458-2.584-18.478-7.741-24.054c-5.158-5.577-11.787-8.368-19.871-8.368
						c-16.455,0-31.615,11.819-45.491,35.455c-13.88,23.634-20.813,47.168-20.813,70.594c0,10.598,2.719,18.793,8.158,24.578
						c5.435,5.789,12.199,8.681,20.283,8.681c15.897,0,30.785-11.747,44.657-35.245C437.128,809.629,444.069,785.75,444.069,761.486
						"/>
				</g>
			</g>
		</g>
	</g>
	<g display="none">
		<g display="inline">
			<g>
				<g>
					<defs>
						<rect id="SVGID_9_" x="-404.555" y="-210.677" width="1834" height="1296.777"/>
					</defs>
					<clipPath id="SVGID_10_">
						<use xlink:href="#SVGID_9_"  overflow="visible"/>
					</clipPath>
					<path clip-path="url(#SVGID_10_)" d="M560.994,720.279l-22.377,76.764c20.913-31.377,36.985-52.013,48.214-61.913
						c11.222-9.902,21.993-14.85,32.315-14.85c5.575,0,10.175,1.882,13.806,5.647c3.623,3.765,5.437,8.576,5.437,14.433
						c0,6.834-1.607,15.828-4.815,26.982l-20.5,70.907c-2.371,8.229-3.553,13.249-3.553,15.061c0,1.536,0.452,2.826,1.359,3.87
						c0.909,1.045,1.847,1.57,2.823,1.57c1.255,0,2.858-0.697,4.812-2.094c5.993-4.738,12.551-11.922,19.658-21.542l5.23,3.134
						c-10.455,14.925-20.358,25.592-29.701,32.003c-6.552,4.321-12.411,6.485-17.569,6.485c-4.185,0-7.501-1.255-9.933-3.765
						c-2.444-2.513-3.665-5.859-3.665-10.04c0-5.437,1.884-14.711,5.65-27.819l19.658-67.773c2.371-8.366,3.558-14.918,3.558-19.661
						c0-2.229-0.732-4.043-2.194-5.44c-1.469-1.39-3.245-2.091-5.337-2.091c-3.068,0-6.834,1.329-11.295,3.976
						c-8.228,5.02-16.837,13.354-25.831,24.996c-8.993,11.644-18.511,26.46-28.551,44.447c-5.3,9.625-9.695,20.081-13.177,31.378
						l-8.368,27.819h-25.304l30.746-105.423c3.624-12.685,5.442-20.288,5.442-22.797s-1.017-4.708-3.034-6.59
						c-2.024-1.882-4.432-2.823-7.217-2.823c-1.397,0-3.766,0.28-7.112,0.837l-6.48,0.837l-1.047-6.067L560.994,720.279z"/>
				</g>
			</g>
		</g>
	</g>
	<g display="none">
		<g display="inline">
			<g>
				<g>
					<defs>
						<rect id="SVGID_11_" x="-404.555" y="-210.677" width="1834" height="1296.777"/>
					</defs>
					<clipPath id="SVGID_12_">
						<use xlink:href="#SVGID_11_"  overflow="visible"/>
					</clipPath>
					<path clip-path="url(#SVGID_12_)" d="M736.484,720.279L703.229,838.46c-2.234,7.948-3.346,12.689-3.346,14.223
						c0,1.812,0.518,3.278,1.567,4.391c1.047,1.119,2.267,1.676,3.661,1.676c1.809,0,3.835-0.907,6.065-2.721
						c6.414-5.02,12.899-12.199,19.451-21.542l5.859,3.973c-7.667,11.575-16.665,21.407-26.984,29.491
						c-7.527,5.859-14.781,8.786-21.752,8.786c-4.603,0-8.366-1.359-11.295-4.078c-2.928-2.721-4.39-6.172-4.39-10.353
						s1.39-11.085,4.181-20.708l21.964-75.509c3.486-12.269,5.228-20.01,5.228-23.217c0-2.371-0.872-4.356-2.614-5.962
						c-1.742-1.6-4.078-2.406-7.004-2.406c-2.513,0-7.673,0.627-15.482,1.882v-6.484L736.484,720.279z M734.395,653.553
						c4.738,0,8.711,1.641,11.922,4.917c3.206,3.276,4.81,7.216,4.81,11.819c0,4.601-1.641,8.574-4.915,11.922
						c-3.278,3.346-7.217,5.02-11.819,5.02s-8.576-1.674-11.922-5.02c-3.346-3.348-5.022-7.322-5.022-11.922
						c0-4.603,1.639-8.541,4.917-11.819C725.644,655.194,729.652,653.553,734.395,653.553"/>
				</g>
			</g>
		</g>
	</g>
	<g display="none">
		<g display="inline">
			<g>
				<g>
					<defs>
						<rect id="SVGID_13_" x="-404.555" y="-210.677" width="1834" height="1296.777"/>
					</defs>
					<clipPath id="SVGID_14_">
						<use xlink:href="#SVGID_13_"  overflow="visible"/>
					</clipPath>
					<path clip-path="url(#SVGID_14_)" d="M829.148,720.279l-22.377,76.764c20.913-31.377,36.985-52.013,48.214-61.913
						c11.222-9.902,21.993-14.85,32.315-14.85c5.575,0,10.176,1.882,13.806,5.647c3.623,3.765,5.437,8.576,5.437,14.433
						c0,6.834-1.607,15.828-4.815,26.982l-20.5,70.907c-2.371,8.229-3.553,13.249-3.553,15.061c0,1.536,0.452,2.826,1.359,3.87
						c0.907,1.045,1.847,1.57,2.823,1.57c1.255,0,2.858-0.697,4.812-2.094c5.993-4.738,12.551-11.922,19.658-21.542l5.23,3.134
						c-10.455,14.925-20.358,25.592-29.701,32.003c-6.552,4.321-12.411,6.485-17.569,6.485c-4.185,0-7.501-1.255-9.933-3.765
						c-2.444-2.513-3.665-5.859-3.665-10.04c0-5.437,1.884-14.711,5.65-27.819l19.658-67.773c2.371-8.366,3.558-14.918,3.558-19.661
						c0-2.229-0.732-4.043-2.194-5.44c-1.469-1.39-3.245-2.091-5.337-2.091c-3.068,0-6.834,1.329-11.295,3.976
						c-8.228,5.02-16.837,13.354-25.831,24.996c-8.993,11.644-18.511,26.46-28.551,44.447c-5.3,9.625-9.697,20.081-13.177,31.378
						l-8.368,27.819h-25.304l30.746-105.423c3.624-12.685,5.44-20.288,5.44-22.797s-1.016-4.708-3.033-6.59
						c-2.024-1.882-4.432-2.823-7.217-2.823c-1.395,0-3.766,0.28-7.112,0.837l-6.48,0.837l-1.049-6.067L829.148,720.279z"/>
				</g>
			</g>
		</g>
	</g>
</g>
</svg>
